<mxfile host="Electron" modified="2024-06-16T13:06:03.532Z" agent="Mozilla/5.0 (X11; Linux x86_64) AppleWebKit/537.36 (KHTML, like Gecko) draw.io/24.5.3 Chrome/124.0.6367.207 Electron/30.0.6 Safari/537.36" etag="5okKYdE-0eRmaPMWWWXD" version="24.5.3" type="device">
  <diagram name="Page-1" id="fKypczjN5zFCzrJRrpl1">
    <mxGraphModel dx="1434" dy="843" grid="1" gridSize="10" guides="1" tooltips="1" connect="1" arrows="1" fold="1" page="1" pageScale="1" pageWidth="850" pageHeight="1100" math="0" shadow="0">
      <root>
        <mxCell id="0" />
        <mxCell id="1" parent="0" />
        <mxCell id="evJmJaYvUwOqLuC0Bf9P-1" value="Developer Resources" style="ellipse;whiteSpace=wrap;html=1;fillColor=#dae8fc;strokeColor=#6c8ebf;" vertex="1" parent="1">
          <mxGeometry x="330" y="170" width="140" height="100" as="geometry" />
        </mxCell>
        <mxCell id="evJmJaYvUwOqLuC0Bf9P-13" style="edgeStyle=orthogonalEdgeStyle;rounded=0;orthogonalLoop=1;jettySize=auto;html=1;exitX=0.5;exitY=0;exitDx=0;exitDy=0;entryX=0;entryY=0.5;entryDx=0;entryDy=0;" edge="1" parent="1" source="evJmJaYvUwOqLuC0Bf9P-2" target="evJmJaYvUwOqLuC0Bf9P-1">
          <mxGeometry relative="1" as="geometry" />
        </mxCell>
        <mxCell id="evJmJaYvUwOqLuC0Bf9P-2" value="Frameworks" style="ellipse;whiteSpace=wrap;html=1;" vertex="1" parent="1">
          <mxGeometry x="57" y="300" width="120" height="80" as="geometry" />
        </mxCell>
        <mxCell id="evJmJaYvUwOqLuC0Bf9P-17" style="edgeStyle=orthogonalEdgeStyle;rounded=0;orthogonalLoop=1;jettySize=auto;html=1;exitX=0.5;exitY=0;exitDx=0;exitDy=0;entryX=0.5;entryY=1;entryDx=0;entryDy=0;" edge="1" parent="1" source="evJmJaYvUwOqLuC0Bf9P-3" target="evJmJaYvUwOqLuC0Bf9P-2">
          <mxGeometry relative="1" as="geometry" />
        </mxCell>
        <mxCell id="evJmJaYvUwOqLuC0Bf9P-3" value="Programming Languages" style="ellipse;whiteSpace=wrap;html=1;" vertex="1" parent="1">
          <mxGeometry x="57" y="410" width="120" height="80" as="geometry" />
        </mxCell>
        <mxCell id="evJmJaYvUwOqLuC0Bf9P-14" style="edgeStyle=orthogonalEdgeStyle;rounded=0;orthogonalLoop=1;jettySize=auto;html=1;exitX=0.5;exitY=0;exitDx=0;exitDy=0;entryX=0;entryY=1;entryDx=0;entryDy=0;" edge="1" parent="1" source="evJmJaYvUwOqLuC0Bf9P-4" target="evJmJaYvUwOqLuC0Bf9P-1">
          <mxGeometry relative="1" as="geometry">
            <Array as="points">
              <mxPoint x="267" y="290" />
              <mxPoint x="351" y="290" />
            </Array>
          </mxGeometry>
        </mxCell>
        <mxCell id="evJmJaYvUwOqLuC0Bf9P-4" value="Pre-built Resource" style="ellipse;whiteSpace=wrap;html=1;" vertex="1" parent="1">
          <mxGeometry x="207" y="300" width="120" height="80" as="geometry" />
        </mxCell>
        <mxCell id="evJmJaYvUwOqLuC0Bf9P-18" style="edgeStyle=orthogonalEdgeStyle;rounded=0;orthogonalLoop=1;jettySize=auto;html=1;exitX=0.5;exitY=0;exitDx=0;exitDy=0;entryX=0.5;entryY=1;entryDx=0;entryDy=0;" edge="1" parent="1" source="evJmJaYvUwOqLuC0Bf9P-5" target="evJmJaYvUwOqLuC0Bf9P-4">
          <mxGeometry relative="1" as="geometry" />
        </mxCell>
        <mxCell id="evJmJaYvUwOqLuC0Bf9P-5" value="Pre-built Model" style="ellipse;whiteSpace=wrap;html=1;" vertex="1" parent="1">
          <mxGeometry x="207" y="410" width="120" height="80" as="geometry" />
        </mxCell>
        <mxCell id="evJmJaYvUwOqLuC0Bf9P-15" style="edgeStyle=orthogonalEdgeStyle;rounded=0;orthogonalLoop=1;jettySize=auto;html=1;exitX=0.5;exitY=0;exitDx=0;exitDy=0;entryX=1;entryY=1;entryDx=0;entryDy=0;" edge="1" parent="1" source="evJmJaYvUwOqLuC0Bf9P-6" target="evJmJaYvUwOqLuC0Bf9P-1">
          <mxGeometry relative="1" as="geometry">
            <Array as="points">
              <mxPoint x="476" y="255" />
            </Array>
          </mxGeometry>
        </mxCell>
        <mxCell id="evJmJaYvUwOqLuC0Bf9P-6" value="Studio Lab" style="ellipse;whiteSpace=wrap;html=1;" vertex="1" parent="1">
          <mxGeometry x="416" y="300" width="120" height="80" as="geometry" />
        </mxCell>
        <mxCell id="evJmJaYvUwOqLuC0Bf9P-19" style="edgeStyle=orthogonalEdgeStyle;rounded=0;orthogonalLoop=1;jettySize=auto;html=1;exitX=0.5;exitY=0;exitDx=0;exitDy=0;entryX=0;entryY=0.5;entryDx=0;entryDy=0;" edge="1" parent="1" source="evJmJaYvUwOqLuC0Bf9P-7" target="evJmJaYvUwOqLuC0Bf9P-6">
          <mxGeometry relative="1" as="geometry" />
        </mxCell>
        <mxCell id="evJmJaYvUwOqLuC0Bf9P-7" value="Jupyter Lab" style="ellipse;whiteSpace=wrap;html=1;" vertex="1" parent="1">
          <mxGeometry x="346" y="410" width="85" height="80" as="geometry" />
        </mxCell>
        <mxCell id="evJmJaYvUwOqLuC0Bf9P-22" style="edgeStyle=orthogonalEdgeStyle;rounded=0;orthogonalLoop=1;jettySize=auto;html=1;exitX=0.5;exitY=0;exitDx=0;exitDy=0;entryX=0.5;entryY=1;entryDx=0;entryDy=0;" edge="1" parent="1" source="evJmJaYvUwOqLuC0Bf9P-8" target="evJmJaYvUwOqLuC0Bf9P-7">
          <mxGeometry relative="1" as="geometry" />
        </mxCell>
        <mxCell id="evJmJaYvUwOqLuC0Bf9P-8" value="Managed Notebook" style="ellipse;whiteSpace=wrap;html=1;" vertex="1" parent="1">
          <mxGeometry x="346" y="520" width="85" height="80" as="geometry" />
        </mxCell>
        <mxCell id="evJmJaYvUwOqLuC0Bf9P-20" style="edgeStyle=orthogonalEdgeStyle;rounded=0;orthogonalLoop=1;jettySize=auto;html=1;exitX=0.5;exitY=0;exitDx=0;exitDy=0;entryX=0.5;entryY=1;entryDx=0;entryDy=0;" edge="1" parent="1" source="evJmJaYvUwOqLuC0Bf9P-9" target="evJmJaYvUwOqLuC0Bf9P-6">
          <mxGeometry relative="1" as="geometry" />
        </mxCell>
        <mxCell id="evJmJaYvUwOqLuC0Bf9P-9" value="RStudio" style="ellipse;whiteSpace=wrap;html=1;" vertex="1" parent="1">
          <mxGeometry x="440" y="410" width="85" height="80" as="geometry" />
        </mxCell>
        <mxCell id="evJmJaYvUwOqLuC0Bf9P-21" style="edgeStyle=orthogonalEdgeStyle;rounded=0;orthogonalLoop=1;jettySize=auto;html=1;entryX=1;entryY=0.5;entryDx=0;entryDy=0;" edge="1" parent="1" source="evJmJaYvUwOqLuC0Bf9P-10" target="evJmJaYvUwOqLuC0Bf9P-6">
          <mxGeometry relative="1" as="geometry" />
        </mxCell>
        <mxCell id="evJmJaYvUwOqLuC0Bf9P-10" value="AI Studio" style="ellipse;whiteSpace=wrap;html=1;" vertex="1" parent="1">
          <mxGeometry x="536" y="410" width="85" height="80" as="geometry" />
        </mxCell>
        <mxCell id="evJmJaYvUwOqLuC0Bf9P-16" style="edgeStyle=orthogonalEdgeStyle;rounded=0;orthogonalLoop=1;jettySize=auto;html=1;entryX=1;entryY=0.5;entryDx=0;entryDy=0;" edge="1" parent="1" source="evJmJaYvUwOqLuC0Bf9P-11" target="evJmJaYvUwOqLuC0Bf9P-1">
          <mxGeometry relative="1" as="geometry">
            <Array as="points">
              <mxPoint x="696" y="220" />
            </Array>
          </mxGeometry>
        </mxCell>
        <mxCell id="evJmJaYvUwOqLuC0Bf9P-11" value="Virtual Environment" style="ellipse;whiteSpace=wrap;html=1;" vertex="1" parent="1">
          <mxGeometry x="636" y="300" width="120" height="80" as="geometry" />
        </mxCell>
        <mxCell id="evJmJaYvUwOqLuC0Bf9P-23" style="edgeStyle=orthogonalEdgeStyle;rounded=0;orthogonalLoop=1;jettySize=auto;html=1;exitX=0.5;exitY=0;exitDx=0;exitDy=0;entryX=0.5;entryY=1;entryDx=0;entryDy=0;" edge="1" parent="1" source="evJmJaYvUwOqLuC0Bf9P-12" target="evJmJaYvUwOqLuC0Bf9P-11">
          <mxGeometry relative="1" as="geometry" />
        </mxCell>
        <mxCell id="evJmJaYvUwOqLuC0Bf9P-12" value="Containerization" style="ellipse;whiteSpace=wrap;html=1;" vertex="1" parent="1">
          <mxGeometry x="641" y="410" width="110" height="80" as="geometry" />
        </mxCell>
      </root>
    </mxGraphModel>
  </diagram>
</mxfile>
